Coordinates
version=1
nRows=12
nColumns=24
inDegrees=yes

Units are S.I. units (second, meters, Newtons, ...)
Angles are in degrees.

endheader
time	pelvis_tilt	pelvis_list	pelvis_rotation	pelvis_tx	pelvis_ty	pelvis_tz	hip_flexion_r	hip_adduction_r	hip_rotation_r	knee_angle_r	ankle_angle_r	subtalar_angle_r	mtp_angle_r	hip_flexion_l	hip_adduction_l	hip_rotation_l	knee_angle_l	ankle_angle_l	subtalar_angle_l	mtp_angle_l	lumbar_extension	lumbar_bending	lumbar_rotation
      3.65500000	     -8.49575181	     -8.90924465	      0.71457400	     -0.91266211	     -0.01927106	      0.61062693	     14.69960618	     12.56538200	     -5.58938005	    -13.80096120	      1.23762310	     -3.92339427	      5.90035209	     28.66543244	    -16.00303705	     -5.23408752	    -69.02220432	     -6.49582851	     16.88032682	     34.90441147	      5.84166375	      9.94053519	     -0.65769246
      3.66000000	     -8.50604123	     -8.63640473	      0.20725341	     -0.90578505	     -0.01826358	      0.61143007	     13.79290354	     12.48179233	     -4.91129777	    -13.11833637	      1.31789410	     -3.83082717	      5.84770237	     29.36695288	    -15.83343197	     -5.75860828	    -68.56574483	     -6.34773137	     16.85617731	     34.79500389	      5.79471239	      9.74057934	     -0.00869209
      3.66500000	     -8.51485538	     -8.37153221	     -0.29930154	     -0.89892489	     -0.01735288	      0.61220947	     12.89943713	     12.38600390	     -4.24197870	    -12.45508489	      1.39899374	     -3.73779004	      5.77228587	     30.05020408	    -15.67846151	     -6.28716862	    -68.04570308	     -6.20757148	     16.77058440	     34.62976985	      5.74487829	      9.55072671	      0.63798633
      3.67000000	     -8.51989709	     -8.11188667	     -0.80856896	     -0.89209870	     -0.01654132	      0.61299334	     12.01818103	     12.27877780	     -3.57121306	    -11.81266750	      1.48566459	     -3.64483875	      5.67459780	     30.71201194	    -15.53866703	     -6.82117206	    -67.46366230	     -6.07387091	     16.62772312	     34.40335020	      5.68851363	      9.36964586	      1.28391398
      3.67500000	     -8.52380877	     -7.86121456	     -1.31500985	     -0.88529303	     -0.01583245	      0.61377109	     11.15194598	     12.16253930	     -2.91707643	    -11.19109921	      1.57961620	     -3.54579957	      5.56147027	     31.35518262	    -15.41452740	     -7.35380949	    -66.82008534	     -5.94518433	     16.43426782	     34.11805403	      5.63109617	      9.19758451	      1.92080995
      3.68000000	     -8.52842961	     -7.61820961	     -1.81998962	     -0.87851240	     -0.01522636	      0.61453586	     10.30231320	     12.03478554	     -2.27913267	    -10.58871792	      1.68244343	     -3.43005446	      5.44376965	     31.98063722	    -15.30434681	     -7.88535934	    -66.11444590	     -5.81967792	     16.19207820	     33.77622676	      5.57252851	      9.03197324	      2.54816220
      3.68500000	     -8.52809304	     -7.38472771	     -2.31625199	     -0.87176221	     -0.01471740	      0.61528890	      9.46399008	     11.89870994	     -1.66230837	    -10.00527212	      1.79097143	     -3.31077279	      5.31823853	     32.58326457	    -15.20671260	     -8.40800727	    -65.34657172	     -5.69369259	     15.92611483	     33.37072628	      5.50715727	      8.87707564	      3.17011685
      3.69000000	     -8.49693033	     -7.17192158	     -2.80074986	     -0.86503948	     -0.01430273	      0.61603250	      8.59785309	     11.76851215	     -1.00918150	     -9.42622346	      1.91318284	     -3.23373308	      5.13774797	     33.13611911	    -15.12701635	     -8.89642459	    -64.52817956	     -5.52546926	     15.73277558	     32.81889617	      5.40306883	      8.73956339	      3.80255300
      3.69500000	     -8.53517838	     -6.95991589	     -3.26714887	     -0.85831122	     -0.01403874	      0.61672999	      7.83836285	     11.61460808	     -0.51548142	     -8.88462594	      2.04695171	     -3.02927042	      5.08187443	     33.74979641	    -15.04828506	     -9.40329428	    -63.63530911	     -5.43099541	     15.31844029	     32.37289419	      5.38876058	      8.60470067	      4.33688782
      3.70000000	     -8.53518241	     -6.74888246	     -3.73589146	     -0.85161232	     -0.01384087	      0.61744130	      7.04987424	     11.44725445	     -0.00025927	     -8.35864520	      2.20397552	     -2.82615781	      5.03751108	     34.28751738	    -14.97660331	     -9.90151329	    -62.67036977	     -5.30245911	     15.00188288	     31.85883523	      5.32390715	      8.46739552	      4.91972227
      3.70500000	     -8.53272818	     -6.55381769	     -4.17773892	     -0.84493947	     -0.01375135	      0.61811291	      6.27393948	     11.27925411	      0.47770976	     -7.84575164	      2.36909605	     -2.62165878	      5.01653469	     34.80839248	    -14.90796464	    -10.37209459	    -61.64508389	     -5.16911108	     14.67978081	     31.29526249	      5.25705949	      8.34319118	      5.46661976
      3.71000000	     -8.52938542	     -6.36988051	     -4.60057661	     -0.83827603	     -0.01376742	      0.61876217	      5.51365957	     11.10783000	      0.92335031	     -7.35377920	      2.55421139	     -2.40577514	      5.02873788	     35.30582451	    -14.84233403	    -10.82228612	    -60.55292343	     -5.02987906	     14.37933469	     30.70596352	      5.19091784	      8.22622615	      5.98925000
